<svg width="378" height="126" viewBox="0 0 378 126" fill="none" xmlns="http://www.w3.org/2000/svg">
<path d="M4 122C4 122 16 115 28 115C41 115 41 105 53 105C65 105 65 99 77 99C90 99 90 88 102 88C114 88 114 80 127 80C139 80 139 74 151 74C164 74 164 66 176 66C189 66 189 58 201 58C213 58 213 51 226 51C238 51 238 41 250 41C263 41 263 34 275 34C287 34 287 26 300 26C312 26 312 17 324 17C337 17 337 10 349 10C361 10 374 4 374 4" stroke="#FCBA3D" stroke-width="2"/>
<circle cx="4" cy="122" r="3.5" fill="#FCBA3D" stroke="#FCBA3D"/>
<circle cx="28" cy="115" r="3.5" fill="#FCBA3D" stroke="#FCBA3D"/>
<circle cx="53" cy="105" r="3.5" fill="#FCBA3D" stroke="#FCBA3D"/>
<circle cx="77" cy="99" r="3.5" fill="#FCBA3D" stroke="#FCBA3D"/>
<circle cx="102" cy="88" r="3.5" fill="#FCBA3D" stroke="#FCBA3D"/>
<circle cx="127" cy="80" r="3.5" fill="#FCBA3D" stroke="#FCBA3D"/>
<circle cx="151" cy="74" r="3.5" fill="#FCBA3D" stroke="#FCBA3D"/>
<circle cx="176" cy="66" r="3.5" fill="#FCBA3D" stroke="#FCBA3D"/>
<circle cx="201" cy="58" r="3.5" fill="#FCBA3D" stroke="#FCBA3D"/>
<circle cx="226" cy="51" r="3.5" fill="#FCBA3D" stroke="#FCBA3D"/>
<circle cx="250" cy="41" r="3.5" fill="#FCBA3D" stroke="#FCBA3D"/>
<circle cx="275" cy="34" r="3.5" fill="#FCBA3D" stroke="#FCBA3D"/>
<circle cx="300" cy="26" r="3.5" fill="#FCBA3D" stroke="#FCBA3D"/>
<circle cx="324" cy="17" r="3.5" fill="#FCBA3D" stroke="#FCBA3D"/>
<circle cx="349" cy="10" r="3.5" fill="#FCBA3D" stroke="#FCBA3D"/>
<circle cx="374" cy="4" r="3.5" fill="#FCBA3D" stroke="#FCBA3D"/>
</svg>
