<svg width="378" height="132" viewBox="0 0 378 132" fill="none" xmlns="http://www.w3.org/2000/svg">
<path d="M4 128C4 128 16 121.236 28 121.236C41 121.236 41 111.091 53 111.091C65 111.091 65 106.582 77 106.582C90 106.582 90 98.6909 102 98.6909C114 98.6909 114 88.5455 127 88.5455C139 88.5455 139 79.5273 151 79.5273C164 79.5273 164 72.7636 176 72.7636C189 72.7636 189 62.6182 201 62.6182C213 62.6182 213 56.9818 226 56.9818C238 56.9818 238 46.8364 250 46.8364C263 46.8364 263 40.0727 275 40.0727C287 40.0727 287 31.0545 300 31.0545C312 31.0545 312 24.2909 324 24.2909C337 24.2909 337 14.1455 349 14.1455C361 14.1455 374 4 374 4" stroke="#113559" stroke-width="2"/>
<path d="M7.5 127.5C7.5 129.766 5.87926 131.5 4 131.5C2.12074 131.5 0.5 129.766 0.5 127.5C0.5 125.234 2.12074 123.5 4 123.5C5.87926 123.5 7.5 125.234 7.5 127.5Z" fill="#113559" stroke="#113559"/>
<path d="M31.5 120.5C31.5 122.766 29.8793 124.5 28 124.5C26.1207 124.5 24.5 122.766 24.5 120.5C24.5 118.234 26.1207 116.5 28 116.5C29.8793 116.5 31.5 118.234 31.5 120.5Z" fill="#113559" stroke="#113559"/>
<path d="M56.5 110.5C56.5 112.766 54.8793 114.5 53 114.5C51.1207 114.5 49.5 112.766 49.5 110.5C49.5 108.234 51.1207 106.5 53 106.5C54.8793 106.5 56.5 108.234 56.5 110.5Z" fill="#113559" stroke="#113559"/>
<path d="M80.5 106.5C80.5 108.766 78.8793 110.5 77 110.5C75.1207 110.5 73.5 108.766 73.5 106.5C73.5 104.234 75.1207 102.5 77 102.5C78.8793 102.5 80.5 104.234 80.5 106.5Z" fill="#113559" stroke="#113559"/>
<path d="M105.5 98.5C105.5 100.766 103.879 102.5 102 102.5C100.121 102.5 98.5 100.766 98.5 98.5C98.5 96.2339 100.121 94.5 102 94.5C103.879 94.5 105.5 96.2339 105.5 98.5Z" fill="#113559" stroke="#113559"/>
<path d="M130.5 88.5C130.5 90.7661 128.879 92.5 127 92.5C125.121 92.5 123.5 90.7661 123.5 88.5C123.5 86.2339 125.121 84.5 127 84.5C128.879 84.5 130.5 86.2339 130.5 88.5Z" fill="#113559" stroke="#113559"/>
<path d="M154.5 79.5C154.5 81.7661 152.879 83.5 151 83.5C149.121 83.5 147.5 81.7661 147.5 79.5C147.5 77.2339 149.121 75.5 151 75.5C152.879 75.5 154.5 77.2339 154.5 79.5Z" fill="#113559" stroke="#113559"/>
<path d="M179.5 72.5C179.5 74.7661 177.879 76.5 176 76.5C174.121 76.5 172.5 74.7661 172.5 72.5C172.5 70.2339 174.121 68.5 176 68.5C177.879 68.5 179.5 70.2339 179.5 72.5Z" fill="#113559" stroke="#113559"/>
<path d="M204.5 62.5C204.5 64.7661 202.879 66.5 201 66.5C199.121 66.5 197.5 64.7661 197.5 62.5C197.5 60.2339 199.121 58.5 201 58.5C202.879 58.5 204.5 60.2339 204.5 62.5Z" fill="#113559" stroke="#113559"/>
<path d="M229.5 57.5C229.5 59.7661 227.879 61.5 226 61.5C224.121 61.5 222.5 59.7661 222.5 57.5C222.5 55.2339 224.121 53.5 226 53.5C227.879 53.5 229.5 55.2339 229.5 57.5Z" fill="#113559" stroke="#113559"/>
<circle cx="250" cy="47" r="3.5" fill="#113559" stroke="#113559"/>
<path d="M278.5 40.5C278.5 42.7661 276.879 44.5 275 44.5C273.121 44.5 271.5 42.7661 271.5 40.5C271.5 38.2339 273.121 36.5 275 36.5C276.879 36.5 278.5 38.2339 278.5 40.5Z" fill="#113559" stroke="#113559"/>
<path d="M303.5 31.5C303.5 33.7661 301.879 35.5 300 35.5C298.121 35.5 296.5 33.7661 296.5 31.5C296.5 29.2339 298.121 27.5 300 27.5C301.879 27.5 303.5 29.2339 303.5 31.5Z" fill="#113559" stroke="#113559"/>
<path d="M327.5 24.5C327.5 26.7661 325.879 28.5 324 28.5C322.121 28.5 320.5 26.7661 320.5 24.5C320.5 22.2339 322.121 20.5 324 20.5C325.879 20.5 327.5 22.2339 327.5 24.5Z" fill="#113559" stroke="#113559"/>
<path d="M352.5 14.5C352.5 16.7661 350.879 18.5 349 18.5C347.121 18.5 345.5 16.7661 345.5 14.5C345.5 12.2339 347.121 10.5 349 10.5C350.879 10.5 352.5 12.2339 352.5 14.5Z" fill="#113559" stroke="#113559"/>
<path d="M377.5 4.5C377.5 6.76613 375.879 8.5 374 8.5C372.121 8.5 370.5 6.76613 370.5 4.5C370.5 2.23387 372.121 0.5 374 0.5C375.879 0.5 377.5 2.23387 377.5 4.5Z" fill="#113559" stroke="#113559"/>
</svg>
